<svg xmlns="http://www.w3.org/2000/svg" xmlns:xlink="http://www.w3.org/1999/xlink" width="1900" zoomAndPan="magnify" viewBox="0 0 1425 449.999984" height="600" preserveAspectRatio="xMidYMid meet" version="1.0"><defs><g/></defs><rect x="-142.5" width="1710" fill="#ffffff" y="-44.999998" height="539.99998" fill-opacity="1"/><rect x="-142.5" width="1710" fill="#ffffff" y="-44.999998" height="539.99998" fill-opacity="1"/><g fill="#000000" fill-opacity="1"><g transform="translate(137.397329, 231.969838)"><g><path d="M 15.671875 -156.65625 L 59.984375 -156.65625 L 59.984375 -35.140625 L 134.71875 -35.140625 L 134.71875 0 L 15.671875 0 Z M 15.671875 -156.65625 "/></g></g></g><g fill="#000000" fill-opacity="1"><g transform="translate(291.137253, 231.969838)"><g><path d="M 15.671875 -156.65625 L 59.984375 -156.65625 L 59.984375 0 L 15.671875 0 Z M 15.671875 -156.65625 "/></g></g></g><g fill="#000000" fill-opacity="1"><g transform="translate(384.232355, 231.969838)"><g><path d="M 136.0625 -81.6875 C 145.019531 -78.550781 152.035156 -73.660156 157.109375 -67.015625 C 162.179688 -60.378906 164.71875 -52.363281 164.71875 -42.96875 C 164.71875 -29.238281 159.195312 -18.644531 148.15625 -11.1875 C 137.113281 -3.726562 121.148438 0 100.265625 0 L 15.671875 0 L 15.671875 -156.65625 L 95.78125 -156.65625 C 115.78125 -156.65625 131 -152.960938 141.4375 -145.578125 C 151.882812 -138.191406 157.109375 -128.234375 157.109375 -115.703125 C 157.109375 -108.242188 155.28125 -101.566406 151.625 -95.671875 C 147.96875 -89.773438 142.78125 -85.113281 136.0625 -81.6875 Z M 59.53125 -124.65625 L 59.53125 -94.4375 L 89.96875 -94.4375 C 104.882812 -94.4375 112.34375 -99.507812 112.34375 -109.65625 C 112.34375 -119.65625 104.882812 -124.65625 89.96875 -124.65625 Z M 96.6875 -32 C 112.195312 -32 119.953125 -37.296875 119.953125 -47.890625 C 119.953125 -58.484375 112.195312 -63.78125 96.6875 -63.78125 L 59.53125 -63.78125 L 59.53125 -32 Z M 96.6875 -32 "/></g></g></g><g fill="#000000" fill-opacity="1"><g transform="translate(573.553585, 231.969838)"><g><path d="M 84.140625 -41.625 L 59.984375 -41.625 L 59.984375 0 L 15.671875 0 L 15.671875 -156.65625 L 87.28125 -156.65625 C 101.457031 -156.65625 113.765625 -154.304688 124.203125 -149.609375 C 134.648438 -144.910156 142.707031 -138.195312 148.375 -129.46875 C 154.039062 -120.738281 156.875 -110.476562 156.875 -98.6875 C 156.875 -87.351562 154.222656 -77.46875 148.921875 -69.03125 C 143.628906 -60.601562 136.0625 -54.003906 126.21875 -49.234375 L 160.015625 0 L 112.5625 0 Z M 112.125 -98.6875 C 112.125 -106 109.8125 -111.671875 105.1875 -115.703125 C 100.5625 -119.734375 93.695312 -121.75 84.59375 -121.75 L 59.984375 -121.75 L 59.984375 -75.859375 L 84.59375 -75.859375 C 93.695312 -75.859375 100.5625 -77.835938 105.1875 -81.796875 C 109.8125 -85.753906 112.125 -91.382812 112.125 -98.6875 Z M 112.125 -98.6875 "/></g></g></g><g fill="#000000" fill-opacity="1"><g transform="translate(756.385191, 231.969838)"><g><path d="M 120.625 -30.4375 L 54.375 -30.4375 L 42.078125 0 L -3.140625 0 L 66.015625 -156.65625 L 109.65625 -156.65625 L 179.03125 0 L 132.9375 0 Z M 107.640625 -63.109375 L 87.5 -113.234375 L 67.359375 -63.109375 Z M 107.640625 -63.109375 "/></g></g></g><g fill="#000000" fill-opacity="1"><g transform="translate(949.510744, 231.969838)"><g><path d="M 84.140625 -41.625 L 59.984375 -41.625 L 59.984375 0 L 15.671875 0 L 15.671875 -156.65625 L 87.28125 -156.65625 C 101.457031 -156.65625 113.765625 -154.304688 124.203125 -149.609375 C 134.648438 -144.910156 142.707031 -138.195312 148.375 -129.46875 C 154.039062 -120.738281 156.875 -110.476562 156.875 -98.6875 C 156.875 -87.351562 154.222656 -77.46875 148.921875 -69.03125 C 143.628906 -60.601562 136.0625 -54.003906 126.21875 -49.234375 L 160.015625 0 L 112.5625 0 Z M 112.125 -98.6875 C 112.125 -106 109.8125 -111.671875 105.1875 -115.703125 C 100.5625 -119.734375 93.695312 -121.75 84.59375 -121.75 L 59.984375 -121.75 L 59.984375 -75.859375 L 84.59375 -75.859375 C 93.695312 -75.859375 100.5625 -77.835938 105.1875 -81.796875 C 109.8125 -85.753906 112.125 -91.382812 112.125 -98.6875 Z M 112.125 -98.6875 "/></g></g></g><g fill="#000000" fill-opacity="1"><g transform="translate(1132.342351, 231.969838)"><g><path d="M 99.59375 -56.171875 L 99.59375 0 L 55.28125 0 L 55.28125 -56.84375 L -4.46875 -156.65625 L 42.296875 -156.65625 L 79.453125 -94.4375 L 116.59375 -156.65625 L 159.5625 -156.65625 Z M 99.59375 -56.171875 "/></g></g></g><g fill="#000000" fill-opacity="1"><g transform="translate(426.512542, 381.568213)"><g><path d="M 37.15625 1.125 C 27.726562 1.125 20.390625 -1.476562 15.140625 -6.6875 C 9.890625 -11.90625 7.265625 -19.359375 7.265625 -29.046875 L 7.265625 -66.015625 L 22.53125 -66.015625 L 22.53125 -29.609375 C 22.53125 -17.785156 27.4375 -11.875 37.25 -11.875 C 42.019531 -11.875 45.660156 -13.304688 48.171875 -16.171875 C 50.691406 -19.035156 51.953125 -23.515625 51.953125 -29.609375 L 51.953125 -66.015625 L 67.046875 -66.015625 L 67.046875 -29.046875 C 67.046875 -19.359375 64.421875 -11.90625 59.171875 -6.6875 C 53.921875 -1.476562 46.582031 1.125 37.15625 1.125 Z M 37.15625 1.125 "/></g></g></g><g fill="#000000" fill-opacity="1"><g transform="translate(497.983419, 381.568213)"><g><path d="M 68.359375 -66.015625 L 68.359375 0 L 55.828125 0 L 22.921875 -40.078125 L 22.921875 0 L 7.828125 0 L 7.828125 -66.015625 L 20.46875 -66.015625 L 53.28125 -25.9375 L 53.28125 -66.015625 Z M 68.359375 -66.015625 "/></g></g></g><g fill="#000000" fill-opacity="1"><g transform="translate(571.340077, 381.568213)"><g><path d="M 7.828125 -66.015625 L 23.109375 -66.015625 L 23.109375 0 L 7.828125 0 Z M 7.828125 -66.015625 "/></g></g></g><g fill="#000000" fill-opacity="1"><g transform="translate(599.437963, 381.568213)"><g><path d="M 71.28125 -66.015625 L 42.71875 0 L 27.625 0 L -0.84375 -66.015625 L 15.65625 -66.015625 L 35.734375 -18.859375 L 56.109375 -66.015625 Z M 71.28125 -66.015625 "/></g></g></g><g fill="#000000" fill-opacity="1"><g transform="translate(666.948704, 381.568213)"><g><path d="M 58.9375 -12.265625 L 58.9375 0 L 7.828125 0 L 7.828125 -66.015625 L 57.703125 -66.015625 L 57.703125 -53.75 L 23.015625 -53.75 L 23.015625 -39.421875 L 53.65625 -39.421875 L 53.65625 -27.53125 L 23.015625 -27.53125 L 23.015625 -12.265625 Z M 58.9375 -12.265625 "/></g></g></g><g fill="#000000" fill-opacity="1"><g transform="translate(727.387764, 381.568213)"><g><path d="M 49.890625 0 L 37.15625 -18.390625 L 23.109375 -18.390625 L 23.109375 0 L 7.828125 0 L 7.828125 -66.015625 L 36.40625 -66.015625 C 42.25 -66.015625 47.320312 -65.035156 51.625 -63.078125 C 55.9375 -61.128906 59.253906 -58.363281 61.578125 -54.78125 C 63.898438 -51.195312 65.0625 -46.957031 65.0625 -42.0625 C 65.0625 -37.15625 63.882812 -32.925781 61.53125 -29.375 C 59.175781 -25.820312 55.828125 -23.101562 51.484375 -21.21875 L 66.296875 0 Z M 49.59375 -42.0625 C 49.59375 -45.769531 48.398438 -48.613281 46.015625 -50.59375 C 43.628906 -52.570312 40.140625 -53.5625 35.546875 -53.5625 L 23.109375 -53.5625 L 23.109375 -30.546875 L 35.546875 -30.546875 C 40.140625 -30.546875 43.628906 -31.550781 46.015625 -33.5625 C 48.398438 -35.582031 49.59375 -38.414062 49.59375 -42.0625 Z M 49.59375 -42.0625 "/></g></g></g><g fill="#000000" fill-opacity="1"><g transform="translate(793.861315, 381.568213)"><g><path d="M 29.515625 1.125 C 24.296875 1.125 19.25 0.421875 14.375 -0.984375 C 9.507812 -2.398438 5.597656 -4.238281 2.640625 -6.5 L 7.828125 -18.015625 C 10.648438 -15.941406 14.007812 -14.273438 17.90625 -13.015625 C 21.8125 -11.753906 25.710938 -11.125 29.609375 -11.125 C 33.941406 -11.125 37.144531 -11.769531 39.21875 -13.0625 C 41.300781 -14.351562 42.34375 -16.066406 42.34375 -18.203125 C 42.34375 -19.773438 41.726562 -21.078125 40.5 -22.109375 C 39.269531 -23.148438 37.695312 -23.984375 35.78125 -24.609375 C 33.863281 -25.234375 31.269531 -25.925781 28 -26.6875 C 22.976562 -27.882812 18.863281 -29.078125 15.65625 -30.265625 C 12.445312 -31.460938 9.691406 -33.378906 7.390625 -36.015625 C 5.097656 -38.660156 3.953125 -42.179688 3.953125 -46.578125 C 3.953125 -50.410156 4.988281 -53.882812 7.0625 -57 C 9.144531 -60.113281 12.273438 -62.582031 16.453125 -64.40625 C 20.628906 -66.226562 25.738281 -67.140625 31.78125 -67.140625 C 35.988281 -67.140625 40.101562 -66.632812 44.125 -65.625 C 48.15625 -64.625 51.675781 -63.179688 54.6875 -61.296875 L 49.984375 -49.6875 C 43.878906 -53.144531 37.78125 -54.875 31.6875 -54.875 C 27.40625 -54.875 24.242188 -54.179688 22.203125 -52.796875 C 20.160156 -51.421875 19.140625 -49.601562 19.140625 -47.34375 C 19.140625 -45.070312 20.316406 -43.382812 22.671875 -42.28125 C 25.035156 -41.1875 28.632812 -40.101562 33.46875 -39.03125 C 38.5 -37.84375 42.617188 -36.648438 45.828125 -35.453125 C 49.035156 -34.253906 51.785156 -32.367188 54.078125 -29.796875 C 56.367188 -27.222656 57.515625 -23.734375 57.515625 -19.328125 C 57.515625 -15.554688 56.460938 -12.113281 54.359375 -9 C 52.253906 -5.894531 49.09375 -3.429688 44.875 -1.609375 C 40.664062 0.210938 35.546875 1.125 29.515625 1.125 Z M 29.515625 1.125 "/></g></g></g><g fill="#000000" fill-opacity="1"><g transform="translate(851.188841, 381.568213)"><g><path d="M 7.828125 -66.015625 L 23.109375 -66.015625 L 23.109375 0 L 7.828125 0 Z M 7.828125 -66.015625 "/></g></g></g><g fill="#000000" fill-opacity="1"><g transform="translate(879.286739, 381.568213)"><g><path d="M 21.5 -53.5625 L 0.375 -53.5625 L 0.375 -66.015625 L 57.890625 -66.015625 L 57.890625 -53.5625 L 36.78125 -53.5625 L 36.78125 0 L 21.5 0 Z M 21.5 -53.5625 "/></g></g></g><g fill="#000000" fill-opacity="1"><g transform="translate(934.728461, 381.568213)"><g><path d="M 39.515625 -23.390625 L 39.515625 0 L 24.234375 0 L 24.234375 -23.578125 L -1.3125 -66.015625 L 14.90625 -66.015625 L 32.53125 -36.6875 L 50.171875 -66.015625 L 65.15625 -66.015625 Z M 39.515625 -23.390625 "/></g></g></g></svg>